<svg xmlns="http://www.w3.org/2000/svg" width="47" height="40" viewBox="0 0 47 40" fill="none">
  <path d="M46.375 18C46.3767 16.1338 45.9193 14.2959 45.043 12.6483C44.1667 11.0006 42.8986 9.59388 41.3503 8.55207C39.802 7.51025 38.0212 6.86537 36.1648 6.67427C34.3085 6.48317 32.4336 6.75174 30.7055 7.45628C28.9775 8.16083 27.4493 9.27971 26.2557 10.7143C25.0622 12.1489 24.2399 13.855 23.8614 15.6824C23.4829 17.5098 23.5598 19.4022 24.0854 21.1929C24.6109 22.9835 25.569 24.6173 26.875 25.9503V37.5C26.8748 37.7771 26.9455 38.0497 27.0803 38.2918C27.2152 38.534 27.4097 38.7376 27.6454 38.8833C27.8811 39.029 28.1502 39.1121 28.4271 39.1245C28.7039 39.137 28.9794 39.0784 29.2272 38.9544L35 36.0659L40.7728 38.9544C41.0206 39.0784 41.2961 39.137 41.5729 39.1245C41.8498 39.1121 42.1189 39.029 42.3546 38.8833C42.5903 38.7376 42.7848 38.534 42.9197 38.2918C43.0545 38.0497 43.1252 37.7771 43.125 37.5V25.9503C45.2092 23.8291 46.3764 20.9738 46.375 18ZM35 9.875C36.607 9.875 38.1779 10.3515 39.514 11.2443C40.8502 12.1371 41.8916 13.406 42.5065 14.8907C43.1215 16.3753 43.2824 18.009 42.9689 19.5851C42.6554 21.1612 41.8815 22.6089 40.7452 23.7452C39.6089 24.8815 38.1612 25.6554 36.5851 25.9689C35.009 26.2824 33.3753 26.1215 31.8907 25.5065C30.406 24.8916 29.1371 23.8502 28.2443 22.514C27.3515 21.1779 26.875 19.607 26.875 18C26.875 15.8451 27.731 13.7785 29.2548 12.2548C30.7785 10.731 32.8451 9.875 35 9.875ZM35.7272 32.7956C35.5014 32.6827 35.2524 32.6238 35 32.6238C34.7476 32.6238 34.4986 32.6827 34.2728 32.7956L30.125 34.8716V28.2761C31.6483 28.9996 33.3136 29.375 35 29.375C36.6864 29.375 38.3517 28.9996 39.875 28.2761V34.8716L35.7272 32.7956ZM23.625 31C23.625 31.431 23.4538 31.8443 23.149 32.1491C22.8443 32.4538 22.431 32.625 22 32.625H4.125C3.26305 32.625 2.4364 32.2826 1.8269 31.6731C1.21741 31.0636 0.875 30.237 0.875 29.375V3.375C0.875 2.51305 1.21741 1.6864 1.8269 1.0769C2.4364 0.46741 3.26305 0.125 4.125 0.125H39.875C40.737 0.125 41.5636 0.46741 42.1731 1.0769C42.7826 1.6864 43.125 2.51305 43.125 3.375C43.125 3.80598 42.9538 4.2193 42.649 4.52405C42.3443 4.82879 41.931 5 41.5 5C41.069 5 40.6557 4.82879 40.351 4.52405C40.0462 4.2193 39.875 3.80598 39.875 3.375H4.125V29.375H22C22.431 29.375 22.8443 29.5462 23.149 29.851C23.4538 30.1557 23.625 30.569 23.625 31ZM20.375 19.625C20.375 20.056 20.2038 20.4693 19.899 20.7741C19.5943 21.0788 19.181 21.25 18.75 21.25H10.625C10.194 21.25 9.7807 21.0788 9.47595 20.7741C9.17121 20.4693 9 20.056 9 19.625C9 19.194 9.17121 18.7807 9.47595 18.476C9.7807 18.1712 10.194 18 10.625 18H18.75C19.181 18 19.5943 18.1712 19.899 18.476C20.2038 18.7807 20.375 19.194 20.375 19.625ZM20.375 13.125C20.375 13.556 20.2038 13.9693 19.899 14.274C19.5943 14.5788 19.181 14.75 18.75 14.75H10.625C10.194 14.75 9.7807 14.5788 9.47595 14.274C9.17121 13.9693 9 13.556 9 13.125C9 12.694 9.17121 12.2807 9.47595 11.976C9.7807 11.6712 10.194 11.5 10.625 11.5H18.75C19.181 11.5 19.5943 11.6712 19.899 11.976C20.2038 12.2807 20.375 12.694 20.375 13.125Z" fill="#6BB93B"/>
</svg>