<svg xmlns="http://www.w3.org/2000/svg" width="247" height="48" viewBox="0 0 247 48" fill="none">
  <path d="M26.5331 15.5723V18.9271H16.2194V22.431H26.5331V25.7831H16.2194V29.2436H26.5331V32.6391H16.2194H12.5071V15.5723H26.5331Z" fill="black"/>
  <path d="M45.8283 32.6392H41.9806L40.9733 29.8259H32.2544L31.2471 32.6392H27.3994L33.5054 15.5886H39.7223L45.8283 32.6392ZM39.7629 26.4412L37.0823 18.9543H36.1481L33.4674 26.4412H39.7629Z" fill="black"/>
  <path d="M61.7389 27.3374C61.7389 31.575 58.9174 32.6391 53.927 32.6391C45.5168 32.6391 45.5195 27.9791 45.5195 26.3274H49.3266C49.3266 28.9052 51.593 29.3086 53.8106 29.3086C56.6158 29.3086 57.7829 28.6615 57.7829 27.3401C57.7829 26.1785 56.6158 25.9781 53.2718 25.4853C48.1704 24.7326 45.8797 23.6765 45.8797 20.5545C45.8797 18.1446 47.6641 15.3611 53.2339 15.3611C59.8597 15.3611 61.1811 19.068 61.1811 21.6674H57.2873C57.2873 20.4841 56.762 18.7268 53.2339 18.7268C50.3583 18.7268 49.7057 19.7639 49.7057 20.587C49.7057 21.4914 50.7103 21.8299 53.5642 22.2929C57.3902 22.9157 61.7389 23.4762 61.7389 27.3374Z" fill="black"/>
  <path d="M61.7825 15.5723H78.3917V18.9596H71.9419V32.6391H68.2296V18.9596H61.7798V15.5723H61.7825Z" fill="black"/>
  <path d="M109.847 15.5723H113.922L109.934 32.6391H103.622L100.988 21.3533H100.668L98.0335 32.6391H91.6162L87.6277 15.5723H91.7028L94.8519 29.2436H95.2743L98.5155 15.5723H103.138L106.379 29.2436H106.698L109.847 15.5723Z" fill="black"/>
  <path d="M128.766 15.5723V18.9271H118.453V22.431H128.766V25.7831H118.453V29.2436H128.766V32.6391H118.453H114.74V15.5723H128.766Z" fill="black"/>
  <path d="M145.83 27.3374C145.83 31.575 143.009 32.6391 138.019 32.6391C129.608 32.6391 129.611 27.9791 129.611 26.3274H133.418C133.418 28.9052 135.685 29.3086 137.902 29.3086C140.707 29.3086 141.874 28.6615 141.874 27.3401C141.874 26.1785 140.707 25.9781 137.363 25.4853C132.262 24.7326 129.971 23.6765 129.971 20.5545C129.971 18.1446 131.756 15.3611 137.323 15.3611C143.949 15.3611 145.27 19.068 145.27 21.6674H141.376C141.376 20.4841 140.851 18.7268 137.323 18.7268C134.447 18.7268 133.795 19.7639 133.795 20.587C133.795 21.4914 134.799 21.8299 137.653 22.2929C141.479 22.9157 145.828 23.4762 145.828 27.3374H145.83Z" fill="black"/>
  <path d="M145.874 15.5723H162.483V18.9596H156.033V32.6391H152.321V18.9596H145.871V15.5723H145.874Z" fill="black"/>
  <path d="M162.069 31.8592L161.936 32.639H159.946L160.436 28.3391H161.746L161.124 31.7644L162.069 31.8565V31.8592Z" fill="#F7C63B"/>
  <path d="M165.05 28.342L164.885 29.3087H164.289L163.655 32.6419H162.629L163.014 29.528L163.88 29.3087H162.38L162.526 28.342H165.053H165.05Z" fill="#F7C63B"/>
  <path d="M167.379 28.0847C167.934 28.6371 168.213 29.2653 168.213 29.9774C168.213 30.8412 167.839 31.7293 167.094 32.6418H165.169L165.494 28.8645H166.591C166.331 28.61 166.103 28.4313 165.908 28.3365L167.376 28.0847H167.379ZM166.71 28.9783L166.147 32.5416C166.315 32.3521 166.493 32.0732 166.683 31.7022C166.992 31.1038 167.146 30.565 167.146 30.0884C167.146 29.6119 167 29.2653 166.71 28.9783Z" fill="#F7C63B"/>
  <path d="M234.641 6.76123L221.406 19.9966L209.576 31.824L211.693 41.1847L223.523 29.3546L236.759 16.1219L234.641 6.76123Z" fill="#F7C63B"/>
  <path d="M218.468 7.01294L206.638 18.843L205.311 20.1698L196.89 28.5909H192.858L193.603 31.8808L195.72 41.2414L207.431 29.5305L208.756 28.2037L220.586 16.3736L218.468 7.01294Z" fill="#F7C63B"/>
  <path d="M202.406 7.32715L190.695 19.0381L192.812 28.3987L204.523 16.6878L202.406 7.32715Z" fill="black"/>
</svg>